<?xml version="1.0" encoding="UTF-8" standalone="no"?>
<svg
   height="480"
   width="480"
   id=""
   viewBox="0 0 480 480"
   y="0"
   version="1.1"
   xmlns="http://www.w3.org/2000/svg"
   xmlns:svg="http://www.w3.org/2000/svg">
  <path
     fill="#ff0000"
     d="m 377.58494,53.453174 c 0.37837,-10.201162 18.74108,-9.445735 24.41238,-2.31473 7.02443,8.832412 2.16287,21.013928 -7.85691,20.893725 -10.00397,-0.120013 -16.93698,-8.292965 -16.55547,-18.578995 z"
     id="path64"
     style="stroke-width:0.111048" />
  <path
     fill="#ff0000"
     d="m 337.30352,2.0024418 c -37.41622,0.78408 -42.46221,14.4992502 -62.05483,20.5856402 -32.81794,6.82657 -55.00585,-23.1270802 -81.99361,-19.0413902 0.78197,7.1869502 1.98551,19.0968302 -3.01889,19.4788902 -20.4,-10.9 -58.59585,-10.1731 -72.14592,-7.90454 -37.795276,6.32768 -56.363324,18.89766 -78.332049,51.68252 -35.158235,64.582788 32.553098,136.525088 78.377959,178.322018 2.40001,3.4 1.70001,7.2 -2.29999,12.1 -5.1,6.2 -16.200003,7.3 -26.900003,2.7 -7,-3 -11.1,-0.1 -7.3,5.1 6.1,8.2 33.800003,11.3 57.400003,6.4 l 8.7,-1.8 c 45.56767,19.29006 71.78573,40.71255 98.5,82.3 6.2,9 11.8,29.6 13.2,48.7 0.8,9.4 0.6,9.7 -10.9,16.7 -3.8,2.3 -8,4.9 -9.3,5.7 -2.3,1.4 -2.6,1.3 -3.8,-0.2 -0.7,-1 -1.6,-6 -1.9,-11.5 -3.44931,-40.0291 -3.56273,-64.64428 -41.9,-81.7 -33.68055,-13.17301 -126.361236,-29.65348 -120.800003,-75.1 0.772332,-5.87188 8.753701,-26.31255 4.4,-32.9 C 15.757395,287.2539 20.259,323.90343 58.896236,361.41025 c -18.830946,27.63472 -10.014784,52.32576 5.719473,77.93222 15.734257,25.60645 65.620011,50.65555 150.028081,34.18139 10.72087,-2.09242 25.18267,-7.40536 47.06921,-33.69957 7.03584,-14.80128 8.12319,-18.59871 10.82319,-19.29871 3.3,-0.8 3.4,-0.6 7.3,8.5 15.89194,38.87045 38.94758,55.40702 91.4825,48.59729 41.41286,-5.36805 56.72829,-27.64701 64.78137,-48.31412 11.05586,-28.37349 5.11982,-57.01307 4.13613,-64.78317 -3.4,-16.9 -13.6,-37.3 -18,-43.2 -1.3,-1.7 -2.4,-4.1 -2.4,-5.3 0,-1.2 2,-7.2 4.4,-13.3 24.8772,-60.18394 -0.26742,-117.03886 -9.175,-174.15 C 450.97853,57.704382 422.87473,1.5735218 337.30352,2.0024418 Z M 298.69371,23.522702 c 80.69958,-12.83853 121.94355,14.2748 122.44248,52.00288 0.8,8.7 -1.4,24.899998 -4.4,32.799998 -3.4,8.8 -8,8.8 -14.6,0 -5.1,-6.8 -33.7,-34.399998 -37.8,-36.499998 -20.8,-13.4 -22.5,-15.3 -22.5,-17.9 0,-1.9 10.6,-7.7 15.2,-8.4 5.7,-0.7 6.9,-2.2 3.8,-4.7 -3.4,-2.7 -6.7,-2.2 -16.1,2.4 -7.7,3.8 -9,4.1 -15.9,4 -9,0 -16.5,-2.4 -24.3,-7.6 -8.16692,-6.13273 -5.78098,-7.41202 -5.84248,-16.10288 z m -135.95752,8.00288 c 10.7,1.8 19,5 19.2,7.4 0.5,7.5 -1.6,11.6 -11.3,21.7 -12.3,12.8 -22.9,19.7 -39.5,25.9 -4.00001,1.4 -10.00001,4.4 -13.3,6.6 -7.1,4.5 -25.000003,21.599998 -28.200003,26.699998 -1.7,2.8 -6.8,6.2 -9.4,6.2 1.8823,-49.398288 16.4,-50.999998 17.3,-50.999998 13.457203,9.74154 40.223163,7.65393 38.300003,-11.2 -1.92316,-18.85393 -28.09993,-13.41421 -40.300003,-6.5 C 32.612063,108.08717 86.585851,182.894 114.85362,212.35761 14.844598,137.90234 49.003589,14.138972 162.73619,31.525582 Z m 41.1,59.8 c -6.72123,41.177828 -35.5841,60.350148 -38.6,61.699998 -15.64291,-13.91935 -16.0095,-33.45057 -20.4,-50 -0.7,-2.6 0.10197,-2.57361 2,-4.999998 15.26459,-13.56554 57.05042,-29.45084 57,-6.7 z m 26.5714,-5.16742 c -0.89492,6.86405 -12.87745,47.456358 9.96476,82.685508 -55.43993,47.60421 -44.8518,102.0078 2.44216,122.68211 62.14246,23.793 51.01242,-36.89588 41.72275,-45.85496 -18.69397,-18.02871 -32.90107,-2.94524 -35.80107,8.15476 -2.14221,24.00024 19.63457,25.20081 20.53457,25.20081 -6.8,5.9 -11.90583,11.99946 -28.26875,3.69773 -47.12187,-33.99889 -28.3465,-74.44229 5.59233,-105.9525 104.70662,96.47757 94.15142,98.96521 75.84185,135.45396 -7.81143,15.56722 -18.2,23.5 -21.3,27.1 -29.39978,38.0707 -27.5,65.4 -30.6,62.9 -8.00043,-19.5144 -9.67244,-44.77339 -18.38228,-62.43232 -19.75086,-35.03312 -46.24485,-63.86874 -71.51772,-95.06768 0,0 25.31034,-31.40122 8,-59.2 -2.7,-5.2 -12.30017,-20.80308 -15.80017,-23.00308 37.00343,-34.0154 40.20017,-55.09692 41.50017,-61.69692 2.44324,-13.427278 4.44384,-18.280028 16.0714,-14.667418 z M 375.88098,267.55774 c -13.31027,-5.26583 -22.61745,-20.2294 -23.44479,-29.33216 -11.35398,-70.0021 -58.4,-76.8 -74,-79.1 -8.2,-1.3 -17.07371,-0.12328 -18.87371,-1.22328 -11.06248,-15.38032 -11.62629,-34.57672 -11.72629,-46.37672 -0.1,-8.3 -0.2,-21.299998 -0.1,-21.799998 72.08431,-7.95512 176.21109,112.670348 128.14479,177.832158 z m -50.2051,-70.87371 c 11.78649,17.27542 9.16031,40.34155 7.26031,40.34155 -23.0314,-21.32044 -45.22939,-45.02218 -66.1804,-66.69903 29.46384,-2.00644 47.1336,9.08207 58.92009,26.35748 z m 32.86031,81.54155 c 10.3,7.7 13.1,19.2 7.9,32.3 -2.9,7.1 -7,10.5 -12.7,10.5 -6.8,0 -8.3,-5 -5.4,-18.5 1.5,-15.9 4.6,-26.5 6.1,-26.5 0.5,0 2.4,1 4.1,2.2 z m -6.9,51.4 c 5,1.4 3.4,8 -5.2,21.3 -4.4,6.8 -21.2,24.7 -30.4,32.3 -9.3,7.6 -9.6,3.7 -0.9,-10.5 22,-39.1 24.3,-41.4 28.3,-42.7 3.6,-1 5.3,-1.1 8.2,-0.4 z m -28.7,5.1 c -17.9,42.5 -22.4,48.5 -30.9,57 -7,7.1 -9.66736,5.67819 -7.4,-3.5 7.31226,-29.59989 26,-46.5 31.5,-52.5 2.9,-3.1 6.6,-3.6 6.8,-1 z m 48.38247,123.39974 c -72.21797,17.03376 -86.18247,-42.49974 -82.38247,-45.39974 1.5,-1 7.5,-3.2 13.5,-4.9 7.6,-2 23.84121,-11.01034 27.34285,-13.25941 48.56892,-31.19538 52.65715,-32.24059 56.15715,-33.04059 5.10009,5.63394 11.29992,9.7054 11.83904,27.76877 2e-5,25.59218 -15.73904,38.23123 -20.33904,37.53123 -1.8,-0.3 -1.9,-1 -1.7,-6.4 -0.42527,-17.05539 -11.72324,-21.68617 -25.1,-19.5 -9.13536,1.18166 -14.55007,10.34838 -14.8,19.2 1.44079,19.58843 18.34142,26.78837 34.5,20 32.52048,-17.95841 41.42197,-47.9514 27.9,-82.3 -3.19623,-8.30488 4.2764,-19.77712 11.76841,-22.60006 39.82005,45.43083 -2.58388,113.42789 -38.68594,122.8998 z M 161.79173,396.22164 c 0,0 -3.06505,15.60522 -12.57409,25.82467 -9.50903,10.21945 -25.46206,17.05314 -26.38145,12.97927 13.28959,-15.20639 4.23112,-34.07068 -8.96156,-36.36306 -18.697879,-1.74532 -23.704272,7.91983 -22.238443,22.56306 7.556763,25.99892 29.599993,26.8 41.000003,24 21.56079,-9.08793 33.868,-26.11481 37.8,-46.7 19.61937,1.31412 47.49299,18.29582 49.4,40 2,12.7 2.4,13.5 4,14 3,1 4.7,-0.9 8.6,-9.1 1.8,-3.9 4.8,-8.5 6.8,-10.2 3,-2.7 10.8,-6.8 18.9,-10.1 4.2,-1.7 4.5,1 0.9,8.2 -14.90925,22.02629 -38.3,34.9 -47,36.6 C 130.80631,480.29509 96.060369,459.3943 80.295269,440.2237 62.137656,418.57115 48.659105,387.81412 70.091737,368.07109 c 31.888463,10.38423 57.422403,18.79075 91.699993,28.15055 z"
     id="path70"
     style="stroke-width:0.1" />
</svg>
