<?xml version="1.0" encoding="UTF-8" standalone="no"?>
<!-- Created with Inkscape (http://www.inkscape.org/) -->

<svg
   version="1.1"
   id="svg5487"
   width="300"
   height="300"
   viewBox="0 0 300 300"
   xmlns="http://www.w3.org/2000/svg"
   xmlns:svg="http://www.w3.org/2000/svg">
  <g
     id="g5493"
     transform="translate(-0.7567702,-0.80380725)" />
  <g
     id="layer1"
     transform="translate(-0.7567702,-0.80380725)">
    <path
       style="fill:#fa0000;fill-opacity:1;stroke:none;stroke-width:1px;stroke-linecap:butt;stroke-linejoin:miter;stroke-opacity:1"
       d="M 130.27523,2.4630489 C 193.93332,21.461448 282.96104,42.645176 283.59628,148.94157 c 0.79593,152.93993 -125.70127,90.50742 -136.0736,148.51236 -1.18948,8.92109 -5.9474,-0.59474 -7.13687,-10.70532 -1.18948,-10.11057 -2.9737,-23.19484 -30.92647,-24.97906 -27.952763,-1.78422 -86.237252,-32.71068 -90.400429,-44.01074 -4.163178,-11.30005 -9.5158352,-44.60547 18.43693,-66.61084 27.952765,-22.00537 -1.18948,8.92109 4.163178,21.41063 5.352657,12.48953 6.47917,25.92627 55.952754,34.51064 38.550437,6.68905 46.939887,21.1042 48.724107,42.51483 1.78422,21.41063 0.59636,-7.76367 33.21829,-23.08892 50.29767,-22.22786 44.05881,-38.3664 44.13122,-87.49482 -1.47813,-71.954738 -123.10972,-92.115498 -114.78337,-61.189037 8.32636,30.926457 25.02035,33.183877 22.64139,58.162937 -2.37895,24.97907 -26.88863,44.54166 -42.946604,46.92062 C 72.538835,185.27381 48.205703,175.70651 48.795895,172.5586 81.302368,145.25899 87.04553,145.86359 55.338031,111.30041 12.516774,65.505456 105.70098,60.355203 118.19051,32.997178 130.68004,5.6391519 130.27523,2.4630489 130.27523,2.4630489 Z"
       id="path5754" />
  </g>
</svg>
